<?xml version="1.0" standalone="no"?>
<!DOCTYPE svg PUBLIC "-//W3C//DTD SVG 20010904//EN"
 "http://www.w3.org/TR/2001/REC-SVG-20010904/DTD/svg10.dtd">
<svg version="1.0" xmlns="http://www.w3.org/2000/svg"
 width="243.000000pt" height="243.000000pt" viewBox="0 0 243.000000 243.000000"
 preserveAspectRatio="xMidYMid meet">
<metadata>
Created by potrace 1.14, written by Peter Selinger 2001-2017
</metadata>
<g transform="translate(0.000000,243.000000) scale(0.100000,-0.100000)"
fill="#000000" stroke="none">
<path d="M1248 2320 c-92 -28 -231 -141 -287 -234 -62 -104 -77 -179 -55 -285
17 -81 62 -155 141 -234 34 -34 60 -63 58 -65 -10 -10 -116 59 -167 111 -140
140 -158 302 -52 457 28 41 32 52 19 56 -20 8 -88 -47 -126 -102 -46 -68 -61
-112 -65 -194 -4 -101 22 -204 86 -332 57 -112 56 -128 -6 -108 -51 17 -132
101 -167 173 -15 31 -33 57 -39 57 -15 0 -4 -121 18 -196 10 -32 17 -65 15
-73 -1 -7 2 -10 7 -7 10 6 25 -30 22 -53 -1 -7 3 -10 9 -6 6 3 11 0 11 -8 0
-8 7 -18 16 -21 8 -3 12 -10 9 -16 -3 -5 -3 -10 2 -10 15 -1 98 -83 95 -94 -2
-6 -1 -8 3 -4 4 4 24 -4 44 -16 51 -33 161 -88 191 -96 l25 -7 -27 -5 c-15 -3
-25 -1 -22 3 3 5 1 9 -5 9 -5 0 -13 -5 -16 -10 -4 -7 -12 -7 -24 0 -10 5 -21
6 -25 2 -4 -3 -4 1 -1 10 4 9 0 20 -7 24 -16 11 -42 15 -33 6 4 -4 11 -7 16
-7 5 0 9 -3 9 -7 0 -13 -27 -5 -99 29 -39 19 -50 28 -40 35 10 6 7 7 -8 3 -21
-6 -28 1 -25 27 1 3 -5 12 -13 18 -11 9 -15 9 -15 1 0 -6 4 -11 8 -11 5 0 9
-7 9 -15 0 -12 -6 -10 -24 7 -18 16 -20 24 -11 31 9 6 7 7 -6 3 -20 -7 -49 11
-40 25 3 5 -2 6 -10 3 -19 -7 -22 12 -3 20 6 3 2 3 -10 1 -12 -3 -25 0 -29 6
-5 8 -3 10 7 4 8 -5 10 -4 6 0 -10 11 -37 16 -38 7 -5 -43 -4 -55 8 -70 12
-15 13 -14 3 8 -10 24 -10 24 4 6 13 -16 13 -22 3 -35 -8 -10 -8 -13 0 -8 15
10 44 -20 37 -38 -4 -8 -1 -15 5 -15 7 0 11 -7 9 -16 -2 -10 4 -19 12 -21 13
-4 13 -3 0 7 -13 10 -13 11 0 7 8 -2 14 -11 12 -21 -2 -10 4 -16 15 -16 13 0
14 -3 5 -12 -7 -7 -12 -19 -11 -28 0 -10 3 -9 9 5 5 11 9 14 9 7 1 -8 6 -10
14 -6 9 6 9 5 0 -8 -11 -12 -10 -19 6 -36 10 -12 21 -19 24 -16 3 3 15 0 26
-8 12 -8 18 -18 14 -22 -13 -13 -10 -44 4 -39 10 4 11 9 2 19 -10 12 -9 13 5
8 9 -3 16 -10 16 -16 0 -5 4 -7 9 -4 5 4 8 -5 6 -19 -2 -20 1 -23 11 -15 14
13 50 -5 59 -29 5 -11 1 -11 -13 2 -10 9 -22 14 -27 10 -4 -5 -5 -2 0 6 5 10
4 12 -4 7 -6 -4 -9 -12 -5 -17 3 -5 9 -7 14 -4 4 3 13 -2 20 -10 7 -8 23 -15
37 -15 15 0 22 -4 17 -11 -4 -8 0 -9 15 -4 22 7 30 -10 9 -18 -7 -3 -3 -4 9
-4 12 1 19 6 16 12 -3 5 6 -1 19 -15 14 -14 24 -28 22 -32 -2 -3 4 -5 13 -3
10 1 24 -3 32 -9 11 -8 13 -8 8 0 -4 7 0 14 8 18 8 3 17 0 21 -6 5 -7 2 -8 -7
-3 -12 8 -12 6 0 -8 14 -18 26 -23 17 -8 -3 5 1 11 9 15 8 3 17 1 20 -5 4 -5
11 -7 16 -4 5 4 9 0 9 -7 0 -8 3 -9 8 -3 9 12 32 18 32 7 0 -4 19 -7 43 -6 23
0 48 -4 56 -10 11 -8 13 -8 8 0 -4 8 3 11 23 10 17 0 30 -6 30 -13 0 -7 5 -13
11 -13 5 0 7 -5 4 -10 -4 -6 -12 -7 -18 -4 -7 4 -9 4 -5 -1 4 -4 4 -13 -2 -19
-6 -8 -1 -12 16 -14 15 -1 29 6 36 18 7 11 16 20 21 20 4 0 5 -6 1 -12 -5 -9
-3 -9 9 1 9 7 14 17 11 22 -3 5 5 19 16 31 l22 23 -16 -40 c-9 -22 -24 -46
-34 -53 -9 -7 -16 -15 -14 -17 6 -12 1 -26 -7 -21 -5 4 -7 -4 -3 -16 3 -11 1
-19 -4 -16 -5 4 -10 -6 -11 -20 -4 -41 -9 -61 -15 -67 -16 -16 29 -144 73
-206 10 -14 16 -29 12 -33 -3 -3 -1 -6 5 -6 7 0 11 -6 10 -12 -2 -7 3 -12 10
-10 16 3 16 -15 0 -21 -8 -3 -6 -6 4 -6 9 -1 21 -9 27 -18 9 -16 11 -15 19 7
6 16 6 29 0 37 -5 7 -6 18 -2 24 4 8 3 9 -4 5 -7 -4 -12 -1 -12 8 0 9 -5 16
-11 16 -8 0 -8 5 1 15 13 16 21 95 9 95 -13 0 -18 -29 -6 -34 9 -3 8 -5 -1 -5
-8 -1 -10 -6 -6 -13 6 -10 4 -10 -8 0 -9 7 -15 21 -13 30 1 9 0 22 -4 27 -11
19 -11 45 0 45 8 0 8 4 0 14 -9 11 -6 20 13 43 14 17 22 34 18 38 -4 5 -1 5 6
1 6 -4 12 -3 12 1 0 5 7 18 16 29 14 18 15 18 4 -4 -10 -21 -10 -22 9 -10 16
10 18 16 9 32 -8 17 -8 19 2 9 7 -6 19 -9 26 -6 17 6 19 24 2 21 -14 -3 -21
49 -7 57 5 4 6 -2 2 -12 -6 -16 -5 -17 13 -3 19 14 19 14 0 -8 -11 -12 -15
-22 -10 -22 11 0 39 41 36 53 -1 4 4 7 10 7 9 0 8 4 -2 11 -11 8 -12 12 -2 16
6 2 10 9 6 14 -3 5 0 9 6 9 6 0 8 4 5 10 -3 5 0 10 8 10 7 0 24 12 38 27 13
14 19 23 12 20 -6 -4 -13 -4 -16 0 -2 5 -2 3 -1 -4 2 -6 -4 -17 -12 -23 -17
-15 -17 -10 -4 25 7 19 15 25 27 21 13 -5 14 -4 3 9 -8 10 -9 15 -1 15 6 0 11
6 11 14 0 8 5 16 11 18 7 2 7 12 0 31 -8 21 -8 26 1 21 8 -5 9 -2 4 12 -5 10
-9 28 -11 39 -1 11 -4 21 -5 23 -1 1 -3 6 -4 11 0 5 -4 13 -8 17 -5 4 -8 15
-8 25 0 9 -6 19 -12 22 -10 3 -10 7 0 20 11 13 9 26 -8 79 -12 34 -24 102 -27
149 -11 177 56 262 202 254 62 -3 67 0 54 29 -13 29 -77 66 -113 66 -15 0 -41
8 -59 17 -22 11 -59 17 -117 18 -126 3 -126 3 -158 30 -59 50 -52 -25 7 -78
l37 -34 -48 -48 c-45 -45 -60 -75 -38 -75 5 0 1 -20 -9 -44 -27 -61 -31 -117
-8 -98 9 8 12 -3 14 -51 1 -34 8 -89 16 -122 8 -33 13 -68 11 -77 -1 -10 3
-18 9 -18 7 0 5 -5 -3 -10 -11 -7 -11 -10 -2 -10 7 0 11 -4 7 -9 -3 -5 -1 -12
3 -15 14 -9 6 -51 -9 -49 -28 3 -84 28 -92 41 -7 10 -12 10 -23 1 -9 -7 -14
-8 -14 -1 0 6 -8 9 -17 8 -32 -5 -87 15 -107 37 -15 17 -18 18 -13 4 5 -14 -2
-13 -46 9 -64 33 -99 59 -89 69 4 3 3 6 -3 5 -21 -5 -36 0 -30 9 3 5 -5 11
-17 13 -13 2 -22 9 -20 16 1 8 -2 11 -7 8 -13 -9 -41 22 -41 45 0 49 122 8
217 -75 13 -11 26 -16 30 -12 10 9 -21 60 -74 123 -24 29 -42 57 -38 62 6 10
16 7 94 -26 52 -23 107 -79 158 -162 58 -94 53 -88 62 -73 21 35 -18 294 -61
395 -26 63 -63 113 -140 191 -197 197 -175 477 50 622 67 44 72 63 10 44z
m378 -1141 c8 -16 12 -29 9 -29 -14 0 -45 91 -50 146 l-5 59 16 -74 c8 -41 22
-87 30 -102z m-892 -220 c-2 -4 2 -10 8 -12 8 -4 9 -6 2 -6 -6 -1 -17 5 -23
12 -8 10 -7 14 4 14 8 0 12 -4 9 -8z m741 -36 c-1 -19 -5 -36 -7 -39 -6 -5
-91 -13 -186 -18 -29 -2 -55 1 -58 5 -2 5 -11 6 -18 3 -8 -3 -17 -1 -21 5 -4
7 0 8 11 4 13 -5 15 -3 9 8 -8 12 -6 12 8 0 12 -9 17 -10 17 -2 0 7 6 11 13 9
11 -2 65 8 107 19 8 3 23 4 34 4 10 0 15 3 12 6 -8 8 40 29 65 29 13 0 16 -8
14 -33z m80 -103 c-9 -27 -25 -60 -35 -73 -11 -13 -16 -28 -12 -32 4 -5 2 -5
-5 -1 -8 4 -3 24 19 69 17 34 34 82 37 107 5 41 6 42 9 12 2 -18 -4 -55 -13
-82z m-82 28 c-4 -7 -8 -20 -8 -28 0 -8 -6 -14 -14 -12 -12 3 -12 1 -1 -13 7
-9 9 -15 4 -13 -5 2 -9 0 -9 -4 0 -4 -9 -14 -20 -22 l-20 -15 20 -1 c19 -1 19
-2 3 -14 -10 -7 -15 -16 -11 -20 4 -4 0 -4 -10 0 -9 3 -14 10 -11 15 3 5 -3 6
-12 2 -11 -4 -23 2 -34 17 -13 17 -19 20 -25 10 -6 -9 -4 -11 5 -5 8 5 11 4 6
-3 -7 -12 -36 -5 -36 9 0 5 -9 9 -20 9 -21 0 -48 36 -27 37 21 2 102 12 102
13 0 2 38 11 53 12 6 1 12 5 12 10 0 4 9 8 19 8 11 0 23 5 26 10 3 6 8 10 11
10 3 0 2 -6 -3 -12z m-426 -123 c0 -11 -4 -12 -14 -4 -7 6 -13 13 -13 15 0 2
6 4 13 4 8 0 14 -7 14 -15z m357 -47 c-3 -4 -9 -8 -15 -8 -5 0 -9 4 -9 8 0 5
7 9 15 9 8 0 12 -4 9 -9z m236 -22 c0 -3 -4 -8 -10 -11 -5 -3 -10 -1 -10 4 0
6 5 11 10 11 6 0 10 -2 10 -4z m-60 -66 c0 -5 -7 -10 -16 -10 -8 0 -12 5 -9
10 3 6 10 10 16 10 5 0 9 -4 9 -10z m-56 -305 c-4 -8 -11 -12 -16 -9 -6 4 -5
10 3 15 19 12 19 11 13 -6z"/>
<path d="M1235 879 c-3 -4 2 -6 10 -5 21 3 28 13 10 13 -9 0 -18 -4 -20 -8z"/>
<path d="M1266 782 c-3 -5 1 -9 9 -9 8 0 12 4 9 9 -3 4 -7 8 -9 8 -2 0 -6 -4
-9 -8z"/>
<path d="M623 1315 c0 -8 4 -12 9 -9 5 3 6 10 3 15 -9 13 -12 11 -12 -6z"/>
<path d="M671 1203 c6 -7 7 -18 3 -24 -5 -8 -3 -9 5 -5 7 5 10 14 7 21 -3 8 0
16 7 18 7 3 2 4 -10 4 -16 -1 -19 -4 -12 -14z"/>
<path d="M710 1201 c0 -6 4 -13 10 -16 6 -3 7 1 4 9 -7 18 -14 21 -14 7z"/>
<path d="M850 1074 c0 -1 8 -8 17 -15 9 -8 14 -9 10 -2 -4 6 -1 13 5 16 7 3 3
4 -9 4 -13 -1 -23 -2 -23 -3z"/>
<path d="M950 1036 c0 -2 8 -10 18 -17 15 -13 16 -12 3 4 -13 16 -21 21 -21
13z"/>
<path d="M1513 468 c-22 -28 -24 -38 -9 -32 9 3 14 10 11 14 -3 5 1 10 7 13 7
2 10 7 7 11 -3 4 -11 1 -16 -6z"/>
<path d="M1505 402 c-24 -16 -9 -39 18 -29 9 4 9 6 0 6 -7 1 -13 6 -13 12 0 5
5 7 12 3 7 -4 8 -3 4 4 -8 14 -8 14 -21 4z"/>
</g>
</svg>
